<?xml version="1.0" encoding="UTF-8" standalone="no"?>
<svg xmlns="http://www.w3.org/2000/svg" xmlns:xlink="http://www.w3.org/1999/xlink" class="card" face="TS" height="3.5in" preserveAspectRatio="none" viewBox="-106 -164.5 212 329" width="2.25in"><defs><symbol id="SST" viewBox="-600 -600 1200 1200" preserveAspectRatio="xMinYMid"><path d="M0 -500C100 -250 355 -100 355 185A150 150 0 0 1 55 185A10 10 0 0 0 35 185C35 385 85 400 130 500L-130 500C-85 400 -35 385 -35 185A10 10 0 0 0 -55 185A150 150 0 0 1 -355 185C-355 -100 -100 -250 0 -500Z" fill="black"></path></symbol><symbol id="VST" viewBox="-500 -500 1000 1000" preserveAspectRatio="xMinYMid"><path d="M-260 430L-260 -430M-50 0L-50 -310A150 150 0 0 1 250 -310L250 310A150 150 0 0 1 -50 310Z" stroke="black" stroke-width="80" stroke-linecap="square" stroke-miterlimit="1.5" fill="none"></path></symbol></defs><rect width="211" height="328" x="-105.5" y="-164" rx="12" ry="12" fill="white" stroke="black"></rect><use xlink:href="#VST" height="40" width="40" x="-102" y="-152.5"></use><use xlink:href="#SST" height="33.462" width="33.462" x="-98.731" y="-107.5"></use><use xlink:href="#SST" height="50" width="50" x="-66.501" y="-125.001"></use><use xlink:href="#SST" height="50" width="50" x="16.501" y="-125.001"></use><use xlink:href="#SST" height="50" width="50" x="-66.501" y="-58.333"></use><use xlink:href="#SST" height="50" width="50" x="16.501" y="-58.333"></use><use xlink:href="#SST" height="50" width="50" x="-25" y="-91.667"></use><g transform="rotate(180)"><use xlink:href="#VST" height="40" width="40" x="-102" y="-152.5"></use><use xlink:href="#SST" height="33.462" width="33.462" x="-98.731" y="-107.5"></use><use xlink:href="#SST" height="50" width="50" x="-66.501" y="-125.001"></use><use xlink:href="#SST" height="50" width="50" x="16.501" y="-125.001"></use><use xlink:href="#SST" height="50" width="50" x="-66.501" y="-58.333"></use><use xlink:href="#SST" height="50" width="50" x="16.501" y="-58.333"></use><use xlink:href="#SST" height="50" width="50" x="-25" y="-91.667"></use></g></svg>